<?xml version="1.0" encoding="UTF-8" standalone="no"?>
<!-- Created with Inkscape (http://www.inkscape.org/) -->

<svg
   xmlns:dc="http://purl.org/dc/elements/1.1/"
   xmlns:cc="http://creativecommons.org/ns#"
   xmlns:rdf="http://www.w3.org/1999/02/22-rdf-syntax-ns#"
   xmlns:svg="http://www.w3.org/2000/svg"
   xmlns="http://www.w3.org/2000/svg"
   xmlns:xlink="http://www.w3.org/1999/xlink"
   xmlns:sodipodi="http://sodipodi.sourceforge.net/DTD/sodipodi-0.dtd"
   xmlns:inkscape="http://www.inkscape.org/namespaces/inkscape"
   width="210mm"
   height="297mm"
   viewBox="0 0 210 297"
   version="1.1"
   id="svg8"
   inkscape:version="0.92.3 (2405546, 2018-03-11)"
   sodipodi:docname="logo.svg">
  <defs
     id="defs2" />
  <sodipodi:namedview
     id="base"
     pagecolor="#ffffff"
     bordercolor="#666666"
     borderopacity="1.0"
     inkscape:pageopacity="0.0"
     inkscape:pageshadow="2"
     inkscape:zoom="0.54"
     inkscape:cx="93.883061"
     inkscape:cy="746.83005"
     inkscape:document-units="mm"
     inkscape:current-layer="layer1"
     showgrid="false"
     inkscape:window-width="1853"
     inkscape:window-height="1021"
     inkscape:window-x="67"
     inkscape:window-y="27"
     inkscape:window-maximized="1" />
  <metadata
     id="metadata5">
    <rdf:RDF>
      <cc:Work
         rdf:about="">
        <dc:format>image/svg+xml</dc:format>
        <dc:type
           rdf:resource="http://purl.org/dc/dcmitype/StillImage" />
        <dc:title />
      </cc:Work>
    </rdf:RDF>
  </metadata>
  <g
     inkscape:label="Layer 1"
     inkscape:groupmode="layer"
     id="layer1">
    <path
       style="fill:#0098ce;fill-opacity:1;stroke:#00ffff;stroke-width:0.5;stroke-miterlimit:4;stroke-dasharray:none;stroke-opacity:1"
       d="M 98.728553,81.413386 A 76.680168,77.66011 0 0 0 22.307892,153.82446 c 6.065255,-3.53572 11.795659,-6.22825 17.190683,-8.07496 7.894875,-2.75097 16.09681,-4.12636 24.605733,-4.12636 9.649293,0 20.921575,2.35803 33.81654,7.07398 l 1.973525,0.70745 c 0.701757,0.2358 1.666817,0.5501 2.894907,0.9431 13.59673,4.87315 24.51762,7.30963 32.76338,7.30963 7.54399,0 15.00062,-1.49306 22.36917,-4.47983 5.01289,-2.00802 10.38408,-4.83736 16.11065,-8.47959 A 76.680168,77.66011 0 0 0 98.728553,81.413386 Z"
       id="path906"
       inkscape:connector-curvature="0" />
    <path
       style="fill:#0036ce;fill-opacity:1;stroke:#00ffff;stroke-width:0.5;stroke-miterlimit:4;stroke-dasharray:none;stroke-opacity:1"
       d="m 61.077618,163.6444 c -7.719433,0 -15.350733,1.53229 -22.894726,4.59765 -4.71305,1.86597 -9.631786,4.42234 -14.755688,7.66879 a 76.680168,77.66011 0 0 0 75.301344,63.27262 76.680168,77.66011 0 0 0 76.410322,-72.19508 c -6.38874,3.77539 -12.43613,6.63363 -18.13843,8.56382 -7.80715,2.67237 -15.96503,4.00854 -24.47395,4.00854 -9.6493,0 -20.87753,-2.31881 -33.684772,-6.95616 -0.96493,-0.3144 -1.66669,-0.55025 -2.1053,-0.70745 -0.61404,-0.2358 -1.579097,-0.5501 -2.894907,-0.9431 -13.596733,-4.87315 -24.518132,-7.30963 -32.763893,-7.30963 z"
       id="path870"
       inkscape:connector-curvature="0" />
    <flowRoot
       xml:space="preserve"
       id="flowRoot876"
       style="font-style:normal;font-weight:normal;font-size:40px;line-height:1.25;font-family:sans-serif;letter-spacing:0px;word-spacing:0px;fill:#000000;fill-opacity:1;stroke:none"
       transform="scale(0.26458333)"><flowRegion
         id="flowRegion878"><rect
           id="rect880"
           width="94.444443"
           height="127.77778"
           x="185.18518"
           y="116.96413" /></flowRegion><flowPara
         id="flowPara882" /></flowRoot>    <path
       d="m 144.94738,26.020535 v 16.8885 q -9.96232,7.495457 -18.50144,10.721351 -8.44425,3.225893 -17.64754,3.225893 -10.436711,0 -24.289076,-5.597874 -1.043671,-0.379517 -1.518067,-0.569275 -0.664155,-0.284638 -2.087343,-0.759034 -14.706277,-5.882511 -23.624923,-5.882511 -8.349371,0 -16.508983,3.700289 -8.159612,3.60541 -17.457774,11.480385 V 42.33976 q 9.962317,-7.495458 18.406566,-10.721351 8.539129,-3.320773 17.742413,-3.320773 10.436713,0 24.383957,5.692753 0.948792,0.379517 1.423188,0.569275 0.759034,0.284638 2.087342,0.759034 14.70628,5.882511 23.62492,5.882511 8.15962,0 16.12947,-3.60541 8.06473,-3.60541 17.83729,-11.575264 z"
       style="font-size:194.31262207px;fill:none;stroke-width:0.36433613"
       id="path908"
       inkscape:connector-curvature="0" />
    <g
       aria-label="~"
       transform="scale(1.205561,0.82948936)"
       style="font-style:normal;font-weight:normal;font-size:194.31262207px;line-height:1.25;font-family:sans-serif;letter-spacing:0px;word-spacing:0px;fill:none;fill-opacity:1;stroke:none;stroke-width:0.36433613"
       id="text874-6" />
    <flowRoot
       xml:space="preserve"
       id="flowRoot911"
       style="font-style:normal;font-weight:normal;font-size:666.66699219px;line-height:1.25;font-family:sans-serif;letter-spacing:0px;word-spacing:0px;fill:#000000;fill-opacity:1;stroke:none"
       transform="scale(0.26458333)"><flowRegion
         id="flowRegion913"
         style="font-size:666.66699219px"><rect
           id="rect915"
           width="87.037041"
           height="62.962963"
           x="272.22223"
           y="68.815979"
           style="font-size:666.66699219px" /></flowRegion><flowPara
         id="flowPara917">~</flowPara></flowRoot>    <flowRoot
       xml:space="preserve"
       id="flowRoot919"
       style="font-style:normal;font-weight:normal;font-size:40px;line-height:1.25;font-family:sans-serif;letter-spacing:0px;word-spacing:0px;fill:#000000;fill-opacity:1;stroke:none"
       transform="scale(0.26458333)"><flowRegion
         id="flowRegion921"><rect
           id="rect923"
           width="7.4074073"
           height="72.222221"
           x="275.92593"
           y="191.03821" /></flowRegion><flowPara
         id="flowPara925" /></flowRoot>    <flowRoot
       xml:space="preserve"
       id="flowRoot927"
       style="font-style:normal;font-weight:normal;font-size:40px;line-height:1.25;font-family:sans-serif;letter-spacing:0px;word-spacing:0px;fill:#000000;fill-opacity:1;stroke:none"
       transform="scale(0.26458333)"><flowRegion
         id="flowRegion929"><rect
           id="rect931"
           width="198.14815"
           height="127.77778"
           x="175.92592"
           y="83.630798" /></flowRegion><flowPara
         id="flowPara933" /></flowRoot>    <flowRoot
       xml:space="preserve"
       id="flowRoot935"
       style="font-style:normal;font-weight:normal;font-size:133.33332825px;line-height:1.25;font-family:sans-serif;letter-spacing:0px;word-spacing:0px;fill:#000000;fill-opacity:1;stroke:none"
       transform="scale(0.26458333)"><flowRegion
         id="flowRegion937"
         style="font-size:133.33332825px"><rect
           id="rect939"
           width="112.96296"
           height="79.629631"
           x="72.222221"
           y="924.37158"
           style="font-size:133.33332825px" /></flowRegion><flowPara
         id="flowPara941">~</flowPara></flowRoot>    <path
       sodipodi:nodetypes="ccscccscc"
       style="font-style:normal;font-weight:normal;font-size:medium;line-height:1.25;font-family:sans-serif;letter-spacing:0px;word-spacing:0px;fill:none;fill-opacity:1;stroke:none;stroke-width:0.48500001;stroke-miterlimit:4;stroke-dasharray:none;stroke-opacity:1"
       inkscape:connector-curvature="0"
       id="path951"
       d="m 197.96613,37.697639 c -9.40272,6.44259 -20.58366,11.5404 -28.64313,14.31321 -7.96993,2.77282 -16.29805,4.1591 -24.98437,4.1591 -9.85047,0 -21.31283,-2.40589 -34.38709,-7.21742 -0.98506,-0.32621 -1.70146,-0.57074 -2.1492,-0.73385 -0.62685,-0.24531 -1.6119,-0.571 -2.95514,-0.97864 -13.880206,-5.05631 -25.029156,-7.58459 -33.446836,-7.58459 -7.88037,0 -15.6712,1.59035 -23.37247,4.7708 -7.70128,3.09903 -15.93982,8.03321 -24.71566,14.80201"
       inkscape:label="path951" />
    <flowRoot
       xml:space="preserve"
       id="flowRoot962"
       style="font-style:normal;font-weight:normal;font-size:40px;line-height:1.25;font-family:sans-serif;letter-spacing:0px;word-spacing:0px;fill:#000000;fill-opacity:1;stroke:none"
       transform="scale(0.26458333)"><flowRegion
         id="flowRegion964"><rect
           id="rect966"
           width="542.59259"
           height="122.22222"
           x="68.518517"
           y="15.112278" /></flowRegion><flowPara
         id="flowPara968" /></flowRoot>    <flowRoot
       xml:space="preserve"
       id="flowRoot970"
       style="font-style:normal;font-weight:normal;font-size:40px;line-height:1.25;font-family:sans-serif;letter-spacing:0px;word-spacing:0px;fill:#000000;fill-opacity:1;stroke:none"
       transform="scale(0.26458333)"><flowRegion
         id="flowRegion972"><rect
           id="rect974"
           width="498.14816"
           height="55.555557"
           x="48.148148"
           y="37.334499" /></flowRegion><flowPara
         id="flowPara976" /></flowRoot>    <flowRoot
       xml:space="preserve"
       id="flowRoot978"
       style="font-style:normal;font-weight:normal;font-size:40px;line-height:1.25;font-family:sans-serif;letter-spacing:0px;word-spacing:0px;fill:#000000;fill-opacity:1;stroke:none"
       transform="scale(0.26458333)"><flowRegion
         id="flowRegion980"><rect
           id="rect982"
           width="168.51852"
           height="64.814812"
           x="68.518517"
           y="44.741909" /></flowRegion><flowPara
         id="flowPara984" /></flowRoot>    <flowRoot
       xml:space="preserve"
       id="flowRoot986"
       style="font-style:normal;font-weight:normal;font-size:40px;line-height:1.25;font-family:sans-serif;letter-spacing:0px;word-spacing:0px;fill:#000000;fill-opacity:1;stroke:none"
       transform="scale(0.26458333)"><flowRegion
         id="flowRegion988"><rect
           id="rect990"
           width="218.51852"
           height="59.259258"
           x="64.814812"
           y="42.890057" /></flowRegion><flowPara
         id="flowPara992" /></flowRoot>    <flowRoot
       xml:space="preserve"
       id="flowRoot994"
       style="font-style:normal;font-weight:normal;font-size:40px;line-height:1.25;font-family:sans-serif;letter-spacing:0px;word-spacing:0px;fill:#000000;fill-opacity:1;stroke:none"
       transform="scale(0.26458333)"><flowRegion
         id="flowRegion996"><rect
           id="rect998"
           width="483.33334"
           height="68.518517"
           x="66.666664"
           y="39.186352" /></flowRegion><flowPara
         id="flowPara1000" /></flowRoot>    <flowRoot
       xml:space="preserve"
       id="flowRoot870"
       style="font-style:normal;font-weight:normal;font-size:133.33332825px;line-height:1.25;font-family:sans-serif;letter-spacing:0px;word-spacing:0px;fill:none;fill-opacity:1;stroke:none;stroke-width:1.02081668;stroke-miterlimit:4;stroke-dasharray:none"
       transform="matrix(1.8730886,0,0,2.0493031,-168.30894,-1856.5694)"><flowRegion
         id="flowRegion872"
         style="font-size:133.33332825px;fill:none;stroke-width:1.02081668;stroke-miterlimit:4;stroke-dasharray:none"><rect
           id="rect874"
           width="600"
           height="161.1111"
           x="96.296295"
           y="959.5567"
           style="font-size:133.33332825px;fill:none;stroke-width:1.02081668;stroke-miterlimit:4;stroke-dasharray:none" /></flowRegion><flowPara
         id="flowPara876">~</flowPara><flowPara
         id="flowPara878" /></flowRoot>    <flowRoot
       xml:space="preserve"
       id="flowRoot924"
       style="font-style:normal;font-weight:normal;font-size:40px;line-height:1.25;font-family:sans-serif;letter-spacing:0px;word-spacing:0px;fill:#000000;fill-opacity:1;stroke:none"><flowRegion
         id="flowRegion926"><rect
           id="rect928"
           width="298.14816"
           height="50"
           x="177.77777"
           y="15.112278" /></flowRegion><flowPara
         id="flowPara930" /></flowRoot>    <text
       xml:space="preserve"
       style="font-style:normal;font-weight:normal;font-size:10.58333302px;line-height:1.25;font-family:sans-serif;letter-spacing:0px;word-spacing:0px;fill:#000000;fill-opacity:1;stroke:none;stroke-width:0.26458332"
       id="text946"
       transform="matrix(-1.1230437,-0.05357382,0.096034,-1.0310874,230.15153,224.56286)"><textPath
         xlink:href="#path951"
         id="textPath948"><tspan
   style="stroke-width:0.26458332"
   id="tspan944"><tspan
     id="tspan942"
     style="font-size:14.11111164px;stroke-width:0.26458332"
     y="21.873083"
     x="38.217823">   Moje piękne LO</tspan></tspan></textPath></text>
  </g>
</svg>
